<svg xmlns="http://www.w3.org/2000/svg" width="1024" height="1024" viewBox="0 0 1024 1024">
<g>
<path d="M 854.83 539.40 C842.04,543.64 826.75,543.51 814.85,539.05 C799.65,533.35 785.35,519.02 780.64,504.75 C780.10,503.11 776.01,503.00 713.53,503.00 L 647.00 503.00 L 647.00 462.00 L 781.66 462.00 L 784.08 456.75 C787.96,448.32 799.83,436.98 809.80,432.16 C839.15,417.96 873.86,429.56 887.98,458.29 C892.57,467.64 894.01,473.99 893.99,484.89 C893.94,510.10 878.55,531.52 854.83,539.40 ZM 630.63 701.41 C627.43,704.00 625.92,704.48 620.19,704.73 C616.07,704.92 612.35,704.50 610.50,703.67 C606.21,701.72 600.22,694.69 599.52,690.81 C599.20,688.99 599.06,620.45 599.22,538.50 L 599.50 389.50 L 639.02 388.96 L 638.76 540.91 C638.50,692.68 638.50,692.86 636.44,695.62 C635.30,697.14 632.69,699.75 630.63,701.41 ZM 824.77 529.92 C826.82,530.40 831.92,530.84 836.09,530.90 C864.06,531.27 886.63,505.23 882.11,477.83 C876.84,445.93 844.00,428.49 815.49,442.44 C805.93,447.12 798.14,454.92 793.36,464.59 C789.97,471.45 789.54,473.20 789.17,481.71 C788.48,497.52 793.48,510.17 804.09,519.41 C808.75,523.48 818.54,528.45 824.77,529.92 ZM 706.97 381.02 C700.75,382.23 611.49,381.99 596.00,380.73 C583.84,379.74 583.56,379.42 584.60,368.00 C585.03,363.33 585.33,357.92 585.25,356.00 C585.04,350.17 585.90,348.02 590.08,343.92 L 594.08 340.00 L 707.64 340.00 L 713.07 342.75 C719.47,345.99 723.62,351.92 724.62,359.22 C725.15,363.12 724.81,364.87 722.62,369.34 C719.41,375.90 714.50,379.57 706.97,381.02 ZM 714.58 618.46 L 709.66 621.50 L 678.82 621.82 C653.70,622.07 647.89,621.88 647.47,620.79 C647.19,620.05 647.08,610.68 647.23,599.97 L 647.50 580.50 L 709.66 580.50 L 714.58 583.54 C727.92,591.78 727.92,610.22 714.58,618.46 ZM 639.00 300.71 L 639.00 332.00 L 599.00 332.00 L 599.00 300.66 C599.00,269.77 599.03,269.25 601.33,264.91 C606.68,254.76 620.95,251.11 630.16,257.51 C632.70,259.28 635.43,262.37 636.75,264.98 C638.94,269.31 639.00,270.25 639.00,300.71 ZM 589.42 620.39 C587.69,621.06 572.31,620.96 567.50,620.26 C565.85,620.02 564.01,619.42 563.42,618.93 C562.18,617.91 562.77,612.00 564.11,612.00 C564.60,612.00 565.00,611.30 565.00,610.44 C565.00,609.51 564.53,609.17 563.83,609.61 C563.00,610.12 562.90,609.78 563.50,608.41 C563.96,607.36 564.23,603.27 564.10,599.32 C563.97,595.37 564.36,591.20 564.96,590.07 C565.73,588.64 565.75,587.41 565.06,586.10 C563.35,582.92 566.13,581.83 577.46,581.25 C585.12,580.86 588.36,581.06 589.48,581.98 C591.80,583.90 591.74,619.50 589.42,620.39 ZM 833.44 500.66 C832.59,502.95 831.33,505.04 830.64,505.31 C828.79,506.02 826.00,504.16 825.99,502.20 C825.96,498.81 838.38,464.07 839.82,463.51 C842.08,462.65 845.00,463.95 845.00,465.82 C845.00,467.26 838.24,487.62 833.44,500.66 ZM 861.38 492.12 C854.56,498.99 852.46,500.06 850.20,497.80 C848.26,495.86 848.73,494.84 854.00,489.50 L 859.01 484.43 L 854.00 479.50 C848.48,474.07 847.99,472.61 851.08,470.96 C853.38,469.73 853.81,469.99 861.83,477.47 C869.13,484.28 869.13,484.31 861.38,492.12 ZM 821.38 496.77 C819.21,500.24 816.68,499.25 809.65,492.16 C805.81,488.28 803.80,486.34 803.80,484.40 C803.80,482.37 805.98,480.34 810.52,476.11 L 811.03 475.63 C817.28,469.80 819.41,469.11 821.39,472.25 C822.30,473.70 821.63,474.85 817.25,479.22 L 812.02 484.46 L 817.24 489.75 C821.58,494.14 822.28,495.33 821.38,496.77 Z" fill="rgb(16,188,230)"/>
<path d="M 524.89 859.56 C505.98,863.62 486.60,857.86 472.95,844.12 C465.07,836.19 460.86,829.08 458.07,819.02 C454.28,805.34 455.85,790.02 462.33,777.50 C466.44,769.56 478.61,757.42 486.75,753.16 L 493.00 749.88 L 493.00 629.00 L 532.00 629.00 L 532.00 749.89 L 539.25 753.65 C553.14,760.85 564.88,775.90 568.46,791.10 C575.71,821.85 555.95,852.90 524.89,859.56 ZM 589.42 620.39 C590.21,620.09 590.74,615.74 591.00,610.07 L 591.00 622.00 L 537.25 621.76 C397.58,621.14 345.70,620.50 347.10,619.41 C349.79,617.31 357.07,615.00 360.96,615.00 C365.36,615.00 366.95,613.63 364.28,612.14 C362.21,610.98 362.29,610.87 367.50,608.11 C370.23,606.66 372.14,604.64 373.51,601.76 C374.61,599.43 376.33,597.37 377.32,597.18 C378.31,596.99 381.12,594.83 383.57,592.38 C387.45,588.50 387.88,587.65 386.92,585.84 C386.85,585.72 386.78,585.59 386.72,585.48 C386.34,584.80 386.03,584.22 386.13,583.74 C386.69,581.02 400.30,581.01 489.75,580.39 L 591.00 579.68 L 591.00 592.42 C590.75,586.91 590.24,582.61 589.48,581.98 C588.36,581.06 585.12,580.86 577.46,581.25 C566.13,581.83 563.35,582.92 565.06,586.10 C565.75,587.41 565.73,588.64 564.96,590.07 C564.36,591.20 563.97,595.37 564.10,599.32 C564.23,603.27 563.96,607.36 563.50,608.41 C562.90,609.78 563.00,610.12 563.83,609.61 C564.53,609.17 565.00,609.51 565.00,610.44 C565.00,611.30 564.60,612.00 564.11,612.00 C562.77,612.00 562.18,617.91 563.42,618.93 C564.01,619.42 565.85,620.02 567.50,620.26 C572.31,620.96 587.69,621.06 589.42,620.39 ZM 532.00 389.00 L 532.00 573.00 L 513.02 572.86 C502.59,572.78 493.81,572.48 493.52,572.19 C493.24,571.90 493.00,530.84 493.00,480.94 C493.00,399.13 493.16,390.15 494.58,389.61 C495.45,389.27 504.23,389.00 514.08,389.00 ZM 501.50 847.59 C522.83,852.88 545.43,842.45 554.21,823.25 C556.84,817.50 557.37,814.97 557.78,806.24 C558.20,797.33 557.97,795.17 555.99,789.74 C546.23,762.89 518.72,751.13 493.32,762.95 C477.62,770.26 468.00,785.86 468.00,804.00 C468.00,825.28 481.29,842.57 501.50,847.59 ZM 532.00 211.16 L 532.00 332.00 L 492.84 332.00 L 493.44 311.02 C493.77,299.48 494.48,288.87 495.02,287.45 C495.56,286.03 496.00,283.16 496.00,281.06 C496.00,274.64 497.08,271.00 498.98,271.00 C499.93,271.00 501.89,269.58 503.33,267.84 C505.90,264.73 506.46,263.37 509.12,253.75 C509.85,251.14 511.00,249.00 511.68,249.00 C513.74,249.00 514.83,245.79 515.08,238.96 C515.32,232.65 516.54,228.15 518.37,226.85 C518.88,226.50 519.03,225.23 518.72,224.04 C517.85,220.70 520.61,215.14 523.51,214.41 C526.09,213.76 527.14,210.02 524.75,209.98 C524.06,209.97 522.38,209.09 521.00,208.02 L 518.50 206.09 L 520.72 203.85 C521.94,202.62 525.32,201.01 528.22,200.28 C534.28,198.75 542.48,193.51 549.02,187.00 C558.34,177.71 564.16,161.19 562.57,148.57 C560.92,135.50 553.73,121.87 544.93,115.09 C541.81,112.70 540.58,111.07 540.78,109.60 C541.07,107.47 545.49,103.00 547.31,103.00 C547.86,103.00 551.96,106.71 556.42,111.25 C565.14,120.13 569.68,127.85 572.46,138.49 C574.51,146.36 574.47,162.05 572.39,169.07 C567.34,186.07 552.17,204.37 543.05,204.46 C540.58,204.49 539.50,204.96 539.50,206.00 C539.50,206.82 537.81,208.32 535.75,209.33 ZM 414.28 703.62 C405.47,707.40 393.84,703.98 388.87,696.14 L 386.00 691.61 L 386.00 629.17 L 406.00 629.20 L 426.00 629.23 L 426.00 659.55 C426.00,678.50 425.60,690.93 424.94,692.68 C423.50,696.50 418.20,701.94 414.28,703.62 ZM 591.00 462.00 L 591.00 503.00 L 540.00 503.00 L 540.00 462.00 ZM 485.00 461.69 L 485.00 503.00 L 468.25 502.90 C459.04,502.84 449.82,502.35 447.77,501.80 C444.07,500.82 444.04,500.77 444.08,495.66 C444.10,492.82 443.81,489.26 443.44,487.74 C442.89,485.48 443.26,484.58 445.46,482.85 C447.11,481.55 447.99,480.05 447.71,479.00 C447.46,478.05 447.68,474.83 448.19,471.85 C449.11,466.50 449.19,466.40 454.04,464.68 C457.20,463.56 463.57,462.72 471.97,462.31 ZM 426.00 561.62 L 426.00 573.00 L 406.67 573.00 C396.03,573.00 387.03,572.70 386.67,572.33 C386.30,571.97 386.00,568.82 386.00,565.33 L 386.00 558.99 L 389.25 560.36 C391.04,561.12 392.37,562.31 392.20,563.01 C391.80,564.71 397.76,559.46 407.15,549.82 C411.36,545.50 416.26,541.46 418.04,540.84 C420.95,539.82 421.45,539.94 423.05,542.07 C425.52,545.34 426.00,548.52 426.00,561.62 ZM 503.27 814.23 C494.63,822.91 492.53,824.13 490.20,821.80 C488.21,819.81 488.75,818.81 496.02,811.01 C499.86,806.89 503.00,803.49 503.00,803.44 C503.00,803.40 499.85,800.01 496.00,795.93 C492.15,791.84 489.00,788.03 489.00,787.45 C489.00,785.89 491.18,784.00 492.97,784.00 C495.26,784.00 512.00,801.16 512.00,803.50 C512.00,804.63 508.29,809.19 503.27,814.23 ZM 540.44 172.55 C541.30,177.13 538.50,180.29 535.00,178.68 C532.46,177.51 531.14,176.59 528.40,174.12 C527.05,172.89 527.19,172.41 529.62,169.87 C531.98,167.41 532.38,166.14 532.46,160.76 C532.60,152.59 535.34,147.50 537.62,151.19 C538.02,151.85 537.81,152.56 537.14,152.79 C536.20,153.10 536.19,153.53 537.08,154.60 C538.40,156.18 540.45,156.53 539.51,155.01 C539.16,154.45 539.56,154.28 540.44,154.62 C541.29,154.94 541.77,155.56 541.51,155.99 C540.81,157.12 543.48,159.09 545.96,159.27 C547.29,159.37 548.30,160.33 548.68,161.87 C549.49,165.09 547.80,167.58 545.07,167.18 C541.64,166.67 539.75,168.86 540.44,172.55 ZM 538.84 822.11 C538.51,824.46 538.30,824.50 526.48,824.78 C517.98,824.98 514.10,824.70 513.23,823.83 C511.62,822.22 511.68,821.46 513.57,819.57 C514.81,818.34 517.43,818.00 525.82,818.02 C531.69,818.02 537.10,818.41 537.84,818.88 C538.57,819.34 539.02,820.80 538.84,822.11 Z" fill="rgb(55,117,248)"/>
<path d="M 201.32 540.31 C198.47,541.16 192.62,542.08 188.32,542.36 C153.82,544.59 125.87,518.97 125.74,485.00 C125.67,464.59 134.80,447.30 151.58,436.07 C160.88,429.86 169.77,426.95 181.50,426.30 C198.23,425.37 212.27,430.51 224.39,442.02 C228.39,445.83 233.27,451.76 235.42,455.42 L 239.26 462.00 L 478.54 462.00 L 471.97 462.31 C463.57,462.72 457.20,463.56 454.04,464.68 C449.19,466.40 449.11,466.50 448.19,471.85 C447.68,474.83 447.46,478.05 447.71,479.00 C447.99,480.05 447.11,481.55 445.46,482.85 C443.26,484.58 442.89,485.48 443.44,487.74 C443.81,489.26 444.10,492.82 444.08,495.66 C444.04,500.77 444.07,500.82 447.77,501.80 C449.82,502.35 459.04,502.84 468.25,502.90 L 485.00 503.00 L 239.95 503.00 L 238.92 505.75 C232.95,521.75 218.20,535.30 201.32,540.31 ZM 426.00 269.98 L 426.00 454.00 L 386.00 454.00 L 385.91 413.25 C385.85,390.84 385.88,349.14 385.96,320.60 C386.11,271.61 386.22,268.48 388.03,264.94 C390.34,260.42 393.64,257.68 399.52,255.44 C408.40,252.05 419.75,256.67 423.83,265.36 ZM 171.81 529.53 C182.18,532.39 196.29,530.92 206.74,525.90 C218.13,520.44 228.49,505.93 231.09,491.83 C235.64,467.09 216.91,442.10 190.74,438.02 C165.79,434.12 141.70,452.31 137.72,478.08 C135.49,492.43 140.71,507.59 151.38,517.78 C157.73,523.84 163.78,527.32 171.81,529.53 ZM 594.07 340.01 L 590.08 343.92 C585.90,348.02 585.04,350.17 585.25,356.00 C585.33,357.92 585.03,363.33 584.60,368.00 C583.56,379.42 583.84,379.74 596.00,380.73 C602.08,381.22 619.50,381.56 638.82,381.71 C608.49,381.56 559.07,381.36 519.25,381.24 L 434.00 380.99 L 434.00 340.03 L 570.81 340.01 ZM 503.06 200.97 C508.43,202.10 523.00,201.43 529.52,199.90 C529.08,200.05 528.64,200.17 528.22,200.28 C525.32,201.01 521.94,202.62 520.72,203.85 L 518.50 206.09 L 521.00 208.02 C522.38,209.09 524.06,209.97 524.75,209.98 C527.14,210.02 526.09,213.76 523.51,214.41 C520.61,215.14 517.85,220.70 518.72,224.04 C519.03,225.23 518.88,226.50 518.37,226.85 C516.54,228.15 515.32,232.65 515.08,238.96 C514.83,245.79 513.74,249.00 511.68,249.00 C511.00,249.00 509.85,251.14 509.12,253.75 C506.46,263.37 505.90,264.73 503.33,267.84 C501.89,269.58 499.93,271.00 498.98,271.00 C497.08,271.00 496.00,274.64 496.00,281.06 C496.00,283.16 495.56,286.03 495.02,287.45 C494.48,288.87 493.77,299.48 493.44,311.02 L 492.84 331.95 L 493.10 317.25 C493.23,309.14 493.26,281.80 493.15,256.50 L 492.96 210.50 L 486.02 207.24 C472.23,200.76 460.09,187.29 455.03,172.86 C451.95,164.08 451.18,148.79 453.38,139.99 C459.35,116.15 479.11,97.61 503.00,93.44 C512.76,91.74 520.25,92.21 530.50,95.16 C536.89,97.00 541.93,99.34 547.00,103.04 C545.03,103.48 541.05,107.59 540.78,109.60 C540.58,111.07 541.81,112.70 544.93,115.09 C545.29,115.38 545.66,115.67 546.02,115.98 C543.63,114.08 540.78,112.40 536.84,110.42 C515.86,99.86 493.03,103.64 477.28,120.30 C454.72,144.15 461.81,182.56 491.37,196.60 C495.35,198.49 500.61,200.46 503.06,200.97 ZM 537.25 621.76 L 591.00 622.00 L 454.25 621.91 C379.04,621.87 316.37,621.48 314.99,621.07 C307.83,618.89 303.09,614.85 300.55,608.77 C295.85,597.53 302.66,584.08 314.56,581.09 C317.57,580.33 360.19,580.00 454.94,580.00 L 545.22 580.00 L 489.75 580.39 C400.30,581.01 386.69,581.02 386.13,583.74 C386.03,584.22 386.34,584.80 386.72,585.48 C386.78,585.59 386.85,585.72 386.92,585.84 C387.88,587.65 387.45,588.50 383.57,592.38 C381.12,594.83 378.31,596.99 377.32,597.18 C376.33,597.37 374.61,599.43 373.51,601.76 C372.14,604.64 370.23,606.66 367.50,608.11 C362.29,610.87 362.21,610.98 364.28,612.14 C366.95,613.63 365.36,615.00 360.96,615.00 C357.07,615.00 349.79,617.31 347.10,619.41 C345.70,620.50 397.58,621.14 537.25,621.76 ZM 378.00 360.44 C378.00,371.68 377.66,381.02 377.25,381.19 C376.84,381.36 361.80,381.27 343.84,381.00 L 311.18 380.50 L 307.34 377.44 C296.80,369.05 296.32,354.07 306.32,345.30 C308.31,343.54 311.65,341.64 313.72,341.06 C315.97,340.44 329.73,340.01 347.75,340.01 L 378.00 340.00 ZM 540.44 172.55 C539.75,168.86 541.64,166.67 545.07,167.18 C547.10,167.48 548.55,166.18 548.84,164.17 C548.82,165.98 548.12,166.99 546.08,169.16 C544.36,171.00 542.17,174.07 541.22,176.00 C540.09,178.30 537.96,180.27 535.04,181.75 C530.92,183.83 529.24,184.00 513.00,184.00 C496.76,184.00 495.08,183.83 490.96,181.75 C487.80,180.15 485.94,178.34 484.57,175.50 C483.51,173.30 482.22,171.33 481.70,171.12 C476.40,169.02 475.28,160.62 479.72,156.20 C481.21,154.72 483.35,151.70 484.47,149.51 C487.79,142.99 491.80,141.00 501.65,141.00 L 510.00 141.00 L 510.00 136.50 C510.00,133.33 509.41,131.41 508.00,130.00 C505.12,127.12 505.41,122.61 508.63,120.07 C512.10,117.35 514.55,117.46 517.55,120.45 C520.52,123.43 520.65,125.90 518.00,129.27 C516.67,130.96 516.00,133.33 516.00,136.31 L 516.00 140.80 L 524.75 141.15 C534.91,141.56 539.00,143.67 541.57,149.83 C542.41,151.85 544.20,154.40 545.53,155.50 C547.04,156.74 548.13,158.90 548.56,161.46 C548.11,160.16 547.17,159.36 545.96,159.27 C543.48,159.09 540.81,157.12 541.51,155.99 C541.77,155.56 541.29,154.94 540.44,154.62 C539.56,154.28 539.16,154.45 539.51,155.01 C540.45,156.53 538.40,156.18 537.08,154.60 C536.19,153.53 536.20,153.10 537.14,152.79 C537.81,152.56 538.02,151.85 537.62,151.19 C535.34,147.50 532.60,152.59 532.46,160.76 L 532.46 160.76 C531.11,158.81 527.56,156.00 526.05,156.00 C523.43,156.00 520.00,159.40 520.00,162.00 C520.00,163.10 520.90,164.90 522.00,166.00 C523.10,167.10 524.92,168.00 526.05,168.00 C527.53,168.00 530.96,165.32 532.37,163.37 C532.16,166.65 531.54,167.87 529.62,169.87 C527.19,172.41 527.05,172.89 528.40,174.12 C531.14,176.59 532.46,177.51 535.00,178.68 C538.50,180.29 541.30,177.13 540.44,172.55 ZM 426.00 561.62 C426.00,548.52 425.52,545.34 423.05,542.07 C421.45,539.94 420.95,539.82 418.04,540.84 C416.26,541.46 411.36,545.50 407.15,549.82 C397.76,559.46 391.80,564.71 392.20,563.01 C392.37,562.31 391.04,561.12 389.25,560.36 L 386.00 558.99 L 386.00 565.33 C386.00,567.94 386.17,570.36 386.41,571.57 L 386.06 570.65 C385.03,567.96 384.66,520.95 385.62,514.97 L 386.26 511.00 L 426.00 511.00 ZM 207.84 468.12 C207.10,468.59 201.69,468.98 195.82,468.98 C187.43,469.00 184.81,468.66 183.57,467.43 C179.39,463.25 182.80,461.89 196.64,462.22 C208.29,462.49 208.51,462.54 208.84,464.89 C209.02,466.20 208.57,467.66 207.84,468.12 ZM 208.50 503.50 L 208.50 509.50 L 196.40 509.78 C186.25,510.01 184.08,509.80 182.96,508.45 C181.98,507.27 181.90,506.38 182.67,505.17 C183.56,503.76 185.63,503.50 196.11,503.50 ZM 208.50 483.50 L 208.50 488.50 L 195.87 488.78 C185.28,489.01 183.14,488.81 182.65,487.53 C182.33,486.69 182.33,485.31 182.65,484.47 C183.14,483.19 185.28,482.99 195.87,483.22 ZM 172.85 506.69 C166.33,513.38 165.72,513.54 161.57,509.63 C157.62,505.91 157.29,504.84 159.49,503.00 C160.70,502.00 161.50,502.10 163.64,503.50 C166.29,505.23 166.31,505.22 169.43,501.51 C171.53,499.01 173.22,497.90 174.52,498.15 C178.04,498.82 177.42,502.00 172.85,506.69 ZM 172.31 465.57 C169.73,468.56 166.89,471.00 166.01,471.00 C165.12,471.00 162.88,469.44 161.04,467.54 C158.22,464.63 157.89,463.84 158.97,462.54 C160.60,460.58 162.41,460.58 164.04,462.55 C165.17,463.91 165.85,463.59 169.59,459.91 C172.35,457.20 174.41,455.94 175.43,456.33 C178.07,457.35 177.21,459.89 172.31,465.57 ZM 171.91 486.75 C169.13,489.64 166.30,492.00 165.63,492.00 C163.40,492.00 157.88,485.47 158.57,483.67 C159.38,481.57 162.35,481.51 164.04,483.55 C165.17,484.91 165.85,484.58 169.62,480.89 C173.25,477.32 174.14,476.87 175.45,477.96 C177.83,479.93 177.36,481.08 171.91,486.75 ZM 496.00 166.00 C498.43,168.43 501.71,168.57 504.17,166.35 C506.57,164.17 506.50,160.50 504.00,158.00 C501.47,155.47 499.93,155.48 496.63,158.07 C493.49,160.55 493.27,163.27 496.00,166.00 ZM 532.00 211.16 L 535.75 209.33 C537.81,208.32 539.50,206.82 539.50,206.00 C539.50,204.96 540.58,204.49 543.05,204.46 C544.69,204.45 546.53,203.84 548.48,202.75 C546.51,204.04 544.26,205.26 541.35,206.70 L 532.00 211.35 ZM 706.97 381.02 C703.49,381.70 684.49,381.97 653.83,381.80 C679.27,381.87 703.81,381.63 706.97,381.02 ZM 386.71 572.36 C387.45,572.71 396.18,573.00 406.48,573.00 L 386.95 573.00 ZM 562.32 146.87 C562.42,147.44 562.50,148.00 562.57,148.57 C563.77,158.09 560.75,169.84 555.19,179.02 C561.28,168.64 563.66,157.59 562.32,146.87 ZM 561.54 190.18 C565.27,185.14 568.63,179.25 570.93,173.32 C568.87,179.28 565.76,184.84 561.54,190.18 ZM 548.74 187.28 C545.06,190.89 540.88,194.10 536.86,196.48 C540.82,193.98 545.36,190.47 548.74,187.28 ZM 571.83 136.24 C570.47,131.64 568.71,127.57 566.34,123.66 C568.78,127.65 570.59,131.78 571.83,136.24 ZM 707.63 339.99 L 707.64 340.00 L 651.71 340.00 ZM 573.87 158.23 C574.03,154.78 574.00,151.10 573.77,147.67 C573.92,149.71 574.00,151.83 574.00,154.03 C574.00,155.45 573.96,156.85 573.87,158.23 Z" fill="rgb(123,76,248)"/>
<path d="M 0.00 512.00 L 0.00 0.00 L 512.00 0.00 L 1024.00 0.00 L 1024.00 512.00 L 1024.00 1024.00 L 512.00 1024.00 L 0.00 1024.00 L 0.00 512.00 ZM 524.89 859.56 C555.95,852.90 575.71,821.85 568.46,791.10 C564.88,775.90 553.14,760.85 539.25,753.65 L 532.00 749.89 L 532.00 689.45 L 532.00 629.00 L 512.50 629.00 L 493.00 629.00 L 493.00 689.44 L 493.00 749.88 L 486.75 753.16 C478.61,757.42 466.44,769.56 462.33,777.50 C455.85,790.02 454.28,805.34 458.07,819.02 C460.86,829.08 465.07,836.19 472.95,844.12 C486.60,857.86 505.98,863.62 524.89,859.56 ZM 414.28 703.62 C418.20,701.94 423.50,696.50 424.94,692.68 C425.60,690.93 426.00,678.50 426.00,659.55 L 426.00 629.23 L 406.00 629.20 L 386.00 629.17 L 386.00 660.39 L 386.00 691.61 L 388.87 696.14 C393.84,703.98 405.47,707.40 414.28,703.62 ZM 630.63 701.41 C632.69,699.75 635.30,697.14 636.44,695.62 C638.50,692.86 638.50,692.68 638.76,540.91 L 639.02 388.96 L 619.26 389.23 L 599.50 389.50 L 599.22 538.50 C599.06,620.45 599.20,688.99 599.52,690.81 C600.22,694.69 606.21,701.72 610.50,703.67 C612.35,704.50 616.07,704.92 620.19,704.73 C625.92,704.48 627.43,704.00 630.63,701.41 ZM 591.00 601.00 L 591.00 580.00 L 454.94 580.00 C360.19,580.00 317.57,580.33 314.56,581.09 C302.66,584.08 295.85,597.53 300.55,608.77 C303.09,614.85 307.83,618.89 314.99,621.07 C316.37,621.48 379.04,621.87 454.25,621.91 L 591.00 622.00 L 591.00 601.00 ZM 714.58 618.46 C727.92,610.22 727.92,591.78 714.58,583.54 L 709.66 580.50 L 678.58 580.50 L 647.50 580.50 L 647.23 599.97 C647.08,610.68 647.19,620.05 647.47,620.79 C647.89,621.88 653.70,622.07 678.82,621.82 L 709.66 621.50 L 714.58 618.46 ZM 426.00 542.00 L 426.00 511.00 L 406.13 511.00 L 386.26 511.00 L 385.62 514.97 C384.66,520.95 385.03,567.96 386.06,570.65 L 386.95 573.00 L 406.48 573.00 L 426.00 573.00 L 426.00 542.00 ZM 532.00 481.00 L 532.00 389.00 L 514.08 389.00 C504.23,389.00 495.45,389.27 494.58,389.61 C493.16,390.15 493.00,399.13 493.00,480.94 C493.00,530.84 493.24,571.90 493.52,572.19 C493.81,572.48 502.59,572.78 513.02,572.86 L 532.00 573.00 L 532.00 481.00 ZM 201.32 540.31 C218.20,535.30 232.95,521.75 238.92,505.75 L 239.95 503.00 L 362.48 503.00 L 485.00 503.00 L 485.00 482.50 L 485.00 462.00 L 362.13 462.00 L 239.26 462.00 L 235.42 455.42 C233.27,451.76 228.39,445.83 224.39,442.02 C212.27,430.51 198.23,425.37 181.50,426.30 C169.77,426.95 160.88,429.86 151.58,436.07 C134.80,447.30 125.67,464.59 125.74,485.00 C125.87,518.97 153.82,544.59 188.32,542.36 C192.62,542.08 198.47,541.16 201.32,540.31 ZM 854.83 539.40 C878.55,531.52 893.94,510.10 893.99,484.89 C894.01,473.99 892.57,467.64 887.98,458.29 C873.86,429.56 839.15,417.96 809.80,432.16 C799.83,436.98 787.96,448.32 784.08,456.75 L 781.66 462.00 L 714.33 462.00 L 647.00 462.00 L 647.00 482.50 L 647.00 503.00 L 713.53 503.00 C776.01,503.00 780.10,503.11 780.64,504.75 C785.35,519.02 799.65,533.35 814.85,539.05 C826.75,543.51 842.04,543.64 854.83,539.40 ZM 591.00 482.50 L 591.00 462.00 L 565.50 462.00 L 540.00 462.00 L 540.00 482.50 L 540.00 503.00 L 565.50 503.00 L 591.00 503.00 L 591.00 482.50 ZM 426.00 361.99 L 426.00 269.98 L 423.83 265.36 C419.75,256.67 408.40,252.05 399.52,255.44 C393.64,257.68 390.34,260.42 388.03,264.94 C386.22,268.48 386.11,271.61 385.96,320.60 C385.88,349.14 385.85,390.84 385.91,413.25 L 386.00 454.00 L 406.00 454.00 L 426.00 454.00 L 426.00 361.99 ZM 378.00 360.44 L 378.00 340.00 L 347.75 340.01 C329.73,340.01 315.97,340.44 313.72,341.06 C311.65,341.64 308.31,343.54 306.32,345.30 C296.32,354.07 296.80,369.05 307.34,377.44 L 311.18 380.50 L 343.84 381.00 C361.80,381.27 376.84,381.36 377.25,381.19 C377.66,381.02 378.00,371.68 378.00,360.44 ZM 706.97 381.02 C714.50,379.57 719.41,375.90 722.62,369.34 C724.81,364.87 725.15,363.12 724.62,359.22 C723.62,351.91 719.47,345.99 713.06,342.75 L 707.63 339.99 L 570.81 340.01 L 434.00 340.03 L 434.00 360.51 L 434.00 380.99 L 519.25 381.24 C566.14,381.38 626.33,381.63 653.00,381.79 C684.15,381.98 703.46,381.70 706.97,381.02 ZM 532.00 271.67 L 532.00 211.35 L 541.35 206.70 C548.89,202.96 551.99,200.70 557.34,195.02 C568.70,182.98 574.00,169.94 574.00,154.03 C574.00,136.15 569.03,124.05 556.51,111.42 C547.51,102.34 540.75,98.12 530.50,95.16 C520.25,92.21 512.76,91.74 503.00,93.44 C479.11,97.61 459.35,116.15 453.38,139.99 C451.18,148.79 451.95,164.08 455.03,172.86 C460.09,187.29 472.23,200.76 486.02,207.24 L 492.96 210.50 L 493.15 256.50 C493.26,281.80 493.23,309.14 493.10,317.25 L 492.84 332.00 L 512.42 332.00 L 532.00 332.00 L 532.00 271.67 ZM 639.00 300.71 C639.00,270.25 638.94,269.31 636.75,264.98 C635.43,262.37 632.70,259.28 630.16,257.51 C620.95,251.11 606.68,254.76 601.33,264.91 C599.03,269.25 599.00,269.77 599.00,300.66 L 599.00 332.00 L 619.00 332.00 L 639.00 332.00 L 639.00 300.71 ZM 501.50 847.59 C481.29,842.57 468.00,825.28 468.00,804.00 C468.00,785.86 477.62,770.26 493.32,762.95 C518.72,751.13 546.23,762.89 555.99,789.74 C557.97,795.17 558.20,797.33 557.78,806.24 C557.37,814.97 556.84,817.50 554.21,823.25 C545.43,842.45 522.83,852.88 501.50,847.59 ZM 538.84 822.11 C539.02,820.80 538.57,819.34 537.84,818.88 C537.10,818.41 531.69,818.02 525.82,818.02 C517.43,818.00 514.81,818.34 513.57,819.57 C511.68,821.46 511.62,822.22 513.23,823.83 C514.10,824.70 517.98,824.98 526.48,824.78 C538.30,824.50 538.51,824.46 538.84,822.11 ZM 503.27 814.23 C508.29,809.19 512.00,804.63 512.00,803.50 C512.00,801.16 495.26,784.00 492.97,784.00 C491.18,784.00 489.00,785.89 489.00,787.45 C489.00,788.03 492.15,791.84 496.00,795.93 C499.85,800.01 503.00,803.40 503.00,803.44 C503.00,803.49 499.86,806.89 496.02,811.01 C488.75,818.81 488.21,819.81 490.20,821.80 C492.53,824.13 494.63,822.91 503.27,814.23 ZM 171.81 529.53 C163.78,527.32 157.73,523.84 151.38,517.78 C140.71,507.59 135.49,492.43 137.72,478.08 C141.70,452.31 165.79,434.12 190.74,438.02 C216.91,442.10 235.64,467.09 231.09,491.83 C228.49,505.93 218.13,520.44 206.74,525.90 C196.29,530.92 182.18,532.39 171.81,529.53 ZM 172.85 506.69 C177.42,502.00 178.04,498.82 174.52,498.15 C173.22,497.90 171.53,499.01 169.43,501.51 C166.31,505.22 166.29,505.23 163.64,503.50 C161.50,502.10 160.70,502.00 159.49,503.00 C157.29,504.84 157.62,505.91 161.57,509.63 C165.72,513.54 166.33,513.38 172.85,506.69 ZM 208.50 506.50 L 208.50 503.50 L 196.11 503.50 C185.63,503.50 183.56,503.76 182.67,505.17 C181.90,506.38 181.98,507.27 182.96,508.45 C184.08,509.80 186.25,510.01 196.40,509.78 L 208.50 509.50 L 208.50 506.50 ZM 171.91 486.75 C177.36,481.08 177.83,479.93 175.45,477.96 C174.14,476.87 173.25,477.32 169.62,480.89 C165.85,484.58 165.17,484.91 164.04,483.55 C162.35,481.51 159.38,481.57 158.57,483.67 C157.88,485.47 163.40,492.00 165.63,492.00 C166.30,492.00 169.13,489.64 171.91,486.75 ZM 208.50 486.00 L 208.50 483.50 L 195.87 483.22 C185.28,482.99 183.14,483.19 182.65,484.47 C182.33,485.31 182.33,486.69 182.65,487.53 C183.14,488.81 185.28,489.01 195.87,488.78 L 208.50 488.50 L 208.50 486.00 ZM 172.31 465.57 C177.21,459.89 178.07,457.35 175.43,456.33 C174.41,455.94 172.35,457.20 169.59,459.91 C165.85,463.59 165.17,463.91 164.04,462.55 C162.41,460.58 160.60,460.58 158.97,462.54 C157.89,463.84 158.22,464.63 161.04,467.54 C162.88,469.44 165.12,471.00 166.01,471.00 C166.89,471.00 169.73,468.56 172.31,465.57 ZM 207.84 468.12 C208.57,467.66 209.02,466.20 208.84,464.89 C208.51,462.54 208.29,462.49 196.64,462.22 C182.80,461.89 179.39,463.25 183.57,467.43 C184.81,468.66 187.43,469.00 195.82,468.98 C201.69,468.98 207.10,468.59 207.84,468.12 ZM 824.77 529.92 C818.54,528.45 808.75,523.48 804.09,519.41 C793.48,510.17 788.48,497.52 789.17,481.71 C789.54,473.20 789.97,471.45 793.36,464.59 C798.14,454.92 805.93,447.12 815.49,442.44 C844.00,428.49 876.84,445.93 882.11,477.83 C886.63,505.23 864.06,531.27 836.09,530.90 C831.92,530.84 826.82,530.40 824.77,529.92 ZM 833.44 500.66 C838.24,487.62 845.00,467.26 845.00,465.82 C845.00,463.95 842.08,462.65 839.82,463.51 C838.38,464.07 825.96,498.81 825.99,502.20 C826.00,504.16 828.79,506.02 830.64,505.31 C831.33,505.04 832.59,502.95 833.44,500.66 ZM 821.38 496.77 C822.28,495.33 821.58,494.14 817.24,489.75 L 812.02 484.46 L 817.25 479.22 C821.63,474.85 822.30,473.70 821.39,472.25 C819.41,469.11 817.28,469.80 811.03,475.63 C801.62,484.40 801.65,484.09 809.65,492.16 C816.68,499.25 819.21,500.24 821.38,496.77 ZM 861.38 492.12 C869.13,484.31 869.13,484.28 861.83,477.47 C853.81,469.99 853.38,469.73 851.08,470.96 C847.99,472.61 848.48,474.07 854.00,479.50 L 859.01 484.43 L 854.00 489.50 C848.73,494.84 848.26,495.86 850.20,497.80 C852.46,500.06 854.56,498.99 861.38,492.12 ZM 503.06 200.97 C500.61,200.46 495.35,198.49 491.37,196.60 C461.81,182.56 454.72,144.15 477.28,120.30 C493.03,103.64 515.86,99.86 536.84,110.42 C545.53,114.80 548.91,117.66 553.77,124.79 C565.99,142.69 565.63,164.06 552.80,182.78 C549.27,187.92 537.00,197.38 531.20,199.43 C525.95,201.28 508.96,202.21 503.06,200.97 ZM 535.04 181.75 C537.96,180.27 540.09,178.30 541.22,176.00 C542.17,174.07 544.36,171.00 546.08,169.16 C548.89,166.17 549.16,165.38 548.59,161.66 C548.19,159.01 547.08,156.77 545.53,155.50 C544.20,154.40 542.41,151.85 541.57,149.83 C539.00,143.67 534.91,141.56 524.75,141.15 L 516.00 140.80 L 516.00 136.31 C516.00,133.33 516.67,130.96 518.00,129.27 C520.65,125.90 520.52,123.43 517.55,120.45 C514.55,117.46 512.10,117.35 508.63,120.07 C505.41,122.61 505.12,127.12 508.00,130.00 C509.41,131.41 510.00,133.33 510.00,136.50 L 510.00 141.00 L 501.65 141.00 C491.80,141.00 487.79,142.99 484.47,149.51 C483.35,151.70 481.21,154.72 479.72,156.20 C475.28,160.62 476.40,169.02 481.70,171.12 C482.22,171.33 483.51,173.30 484.57,175.50 C485.94,178.34 487.80,180.15 490.96,181.75 C495.08,183.83 496.76,184.00 513.00,184.00 C529.24,184.00 530.92,183.83 535.04,181.75 ZM 496.00 166.00 C493.27,163.27 493.49,160.55 496.63,158.07 C499.93,155.48 501.47,155.47 504.00,158.00 C506.50,160.50 506.57,164.17 504.17,166.35 C501.71,168.57 498.43,168.43 496.00,166.00 ZM 522.00 166.00 C520.90,164.90 520.00,163.10 520.00,162.00 C520.00,159.40 523.43,156.00 526.05,156.00 C527.94,156.00 533.00,160.37 533.00,162.00 C533.00,163.63 527.94,168.00 526.05,168.00 C524.92,168.00 523.10,167.10 522.00,166.00 Z" fill="rgb(252,252,252)"/>
</g>
</svg>
